<svg xmlns="http://www.w3.org/2000/svg" width="20" height="20" viewBox="0 0 20 20" fill="none">
  <g clip-path="url(#clip0_3324_1240)">
    <path d="M10 20C11.9778 20 13.9112 19.4135 15.5557 18.3147C17.2002 17.2159 18.482 15.6541 19.2388 13.8268C19.9957 11.9996 20.1937 9.98891 19.8079 8.0491C19.422 6.10929 18.4696 4.32746 17.0711 2.92894C15.6726 1.53041 13.8907 0.578004 11.9509 0.192152C10.0111 -0.193701 8.00046 0.0043328 6.1732 0.761209C4.34594 1.51809 2.78415 2.79981 1.68533 4.4443C0.58652 6.08879 3.02754e-05 8.02219 3.02754e-05 10C-0.00320724 11.3141 0.253241 12.616 0.754641 13.8307C1.25604 15.0454 1.99251 16.1491 2.92174 17.0783C3.85097 18.0075 4.95465 18.744 6.16937 19.2454C7.38409 19.7468 8.6859 20.0032 10 20Z" fill="#2775CA"/>
    <path d="M12.7499 11.5837C12.7499 10.1292 11.8754 9.62462 10.1254 9.41644C8.87449 9.25008 8.6254 8.91644 8.6254 8.33371C8.6254 7.75099 9.04176 7.37462 9.87449 7.37462C10.6254 7.37462 11.0418 7.62462 11.2499 8.25008C11.2723 8.31034 11.3126 8.36227 11.3655 8.39886C11.4183 8.43544 11.4811 8.45491 11.5454 8.45462H12.2118C12.2504 8.45562 12.2888 8.44876 12.3246 8.43445C12.3605 8.42014 12.393 8.39868 12.4203 8.37138C12.4476 8.34408 12.4691 8.31151 12.4834 8.27565C12.4977 8.23979 12.5046 8.2014 12.5036 8.16281V8.1219C12.4231 7.67029 12.1957 7.25793 11.8567 6.94886C11.5177 6.6398 11.0861 6.45136 10.629 6.41281V5.41281C10.629 5.24644 10.5036 5.1219 10.2954 5.08008H9.66994C9.50358 5.08008 9.37903 5.20462 9.33722 5.41281V6.37462C8.08358 6.54553 7.29176 7.37462 7.29176 8.41644C7.29176 9.7919 8.1254 10.3337 9.8754 10.5419C11.0418 10.7501 11.4209 10.9964 11.4209 11.6664C11.4209 12.3364 10.8381 12.7919 10.0463 12.7919C8.96267 12.7919 8.59176 12.3373 8.46267 11.7083C8.45076 11.638 8.41458 11.5741 8.36043 11.5278C8.30627 11.4814 8.23758 11.4555 8.16631 11.4546H7.45449C7.41593 11.4538 7.37759 11.4607 7.34179 11.4751C7.306 11.4894 7.27348 11.5109 7.24621 11.5382C7.21893 11.5654 7.19747 11.5979 7.18311 11.6337C7.16875 11.6695 7.1618 11.7079 7.16267 11.7464V11.7883C7.32994 12.8301 7.99631 13.5801 9.37176 13.7883V14.7883C9.37176 14.9546 9.49631 15.0801 9.70449 15.1219H10.3299C10.4963 15.1219 10.6218 14.9964 10.6627 14.7883V13.7883C11.9127 13.5801 12.7463 12.7046 12.7463 11.5801L12.7499 11.5837Z" fill="white"/>
    <path d="M7.87447 15.9581C6.67558 15.5183 5.6406 14.7211 4.90945 13.6742C4.1783 12.6272 3.78622 11.381 3.78622 10.104C3.78622 8.827 4.1783 7.5808 4.90945 6.53384C5.6406 5.48687 6.67558 4.68964 7.87447 4.2499C7.95446 4.2153 8.02165 4.15657 8.06664 4.08192C8.11162 4.00727 8.13216 3.92043 8.12538 3.83354V3.2499C8.13099 3.17335 8.10866 3.09735 8.06252 3.03601C8.01639 2.97466 7.94957 2.93212 7.87447 2.91627C7.81582 2.91015 7.75689 2.92496 7.7081 2.95808C6.1912 3.44022 4.86708 4.39255 3.92739 5.67724C2.9877 6.96193 2.4812 8.51232 2.4812 10.104C2.4812 11.6957 2.9877 13.2461 3.92739 14.5307C4.86708 15.8154 6.1912 16.7678 7.7081 17.2499C7.74275 17.27 7.78167 17.2817 7.82167 17.2838C7.86168 17.286 7.90163 17.2787 7.93826 17.2625C7.97489 17.2463 8.00716 17.2216 8.03241 17.1905C8.05767 17.1594 8.07519 17.1227 8.08356 17.0835C8.12538 17.0417 8.12538 16.9999 8.12538 16.9163V16.3335C8.12538 16.2081 7.99992 16.0417 7.87447 15.9581ZM12.2917 2.95808C12.257 2.93796 12.2181 2.92635 12.178 2.92422C12.1379 2.92209 12.0979 2.92949 12.0613 2.94582C12.0246 2.96214 11.9924 2.98693 11.9672 3.01814C11.942 3.04935 11.9245 3.0861 11.9163 3.12536C11.8754 3.16627 11.8754 3.20808 11.8754 3.29172V3.87445C11.8824 3.95848 11.9086 4.03978 11.9519 4.11212C11.9953 4.18445 12.0546 4.24589 12.1254 4.29172C13.3243 4.73146 14.3592 5.52869 15.0904 6.57565C15.8215 7.62261 16.2136 8.86882 16.2136 10.1458C16.2136 11.4228 15.8215 12.669 15.0904 13.716C14.3592 14.7629 13.3243 15.5602 12.1254 15.9999C12.0455 16.0345 11.9784 16.0933 11.9336 16.168C11.8887 16.2426 11.8684 16.3295 11.8754 16.4163V16.9999C11.8697 17.0763 11.8919 17.1522 11.9379 17.2135C11.9838 17.2749 12.0504 17.3175 12.1254 17.3335C12.184 17.3397 12.243 17.3248 12.2917 17.2917C13.8081 16.8029 15.1303 15.8458 16.0682 14.558C17.0061 13.2702 17.5114 11.7181 17.5114 10.1249C17.5114 8.53175 17.0061 6.97964 16.0682 5.69184C15.1303 4.40403 13.8081 3.44689 12.2917 2.95808Z" fill="white"/>
  </g>
  <defs>
    <clipPath id="clip0_3324_1240">
      <rect width="20" height="20" fill="white"/>
    </clipPath>
  </defs>
</svg>