<svg width="16" height="16" viewBox="0 0 16 16" fill="none" xmlns="http://www.w3.org/2000/svg">
<path d="M1.44434 4.8638V11.1358C1.44434 11.539 1.65554 11.9038 2.00754 12.1086L7.44114 15.2446C7.78674 15.443 8.21554 15.443 8.56114 15.2446L13.9947 12.1086C14.3403 11.9102 14.5579 11.539 14.5579 11.1358V4.8638C14.5579 4.4606 14.3467 4.0958 13.9947 3.891L8.56114 0.755001C8.21554 0.556601 7.78674 0.556601 7.44114 0.755001L2.00754 3.891C1.66194 4.0894 1.45074 4.4606 1.45074 4.8638H1.44434Z" fill="#213147"/>
<path d="M9.17845 9.21677L8.40405 11.3416C8.38485 11.3992 8.38485 11.4632 8.40405 11.5272L9.73525 15.1816L11.2776 14.292L9.42805 9.21677C9.38325 9.10157 9.22325 9.10157 9.17845 9.21677Z" fill="#12AAFF"/>
<path d="M10.7342 5.64524C10.6894 5.53004 10.5294 5.53004 10.4846 5.64524L9.7102 7.77004C9.691 7.82764 9.691 7.89164 9.7102 7.95564L11.8926 13.9396L13.435 13.05L10.7342 5.65164V5.64524Z" fill="#12AAFF"/>
<path d="M7.99745 0.992C8.03585 0.992 8.07425 1.0048 8.10625 1.024L13.9815 4.416C14.0519 4.4544 14.0903 4.5312 14.0903 4.608V11.392C14.0903 11.4688 14.0455 11.5456 13.9815 11.584L8.10625 14.976C8.07425 14.9952 8.03585 15.008 7.99745 15.008C7.95905 15.008 7.92065 14.9952 7.88865 14.976L2.01345 11.584C1.94305 11.5456 1.90465 11.4688 1.90465 11.392V4.6016C1.90465 4.5248 1.94945 4.448 2.01345 4.4096L7.88865 1.0176C7.92065 0.9984 7.95905 0.9856 7.99745 0.9856V0.992ZM7.99745 0C7.78625 0 7.58145 0.0512 7.38945 0.16L1.51425 3.552C1.13665 3.7696 0.90625 4.1664 0.90625 4.6016V11.3856C0.90625 11.8208 1.13665 12.2176 1.51425 12.4352L7.38945 15.8272C7.57505 15.936 7.78625 15.9872 7.99745 15.9872C8.20865 15.9872 8.41345 15.936 8.60545 15.8272L14.4807 12.4352C14.8583 12.2176 15.0887 11.8208 15.0887 11.3856V4.6016C15.0887 4.1664 14.8583 3.7696 14.4807 3.552L8.59905 0.16C8.41345 0.0512 8.20225 0 7.99105 0H7.99745Z" fill="#9DCCED"/>
<path d="M4.1084 13.9457L4.6524 12.4609L5.7404 13.3633L4.7228 14.2977L4.1084 13.9457Z" fill="#213147"/>
<path d="M7.49836 4.12115H6.00716C5.89836 4.12115 5.79596 4.19155 5.75756 4.29395L2.56396 13.0491L4.10636 13.9387L7.62636 4.29395C7.65836 4.20435 7.59436 4.11475 7.50476 4.11475L7.49836 4.12115Z" fill="white"/>
<path d="M10.109 4.12115H8.61782C8.50902 4.12115 8.40662 4.19155 8.36822 4.29395L4.72021 14.2907L6.26262 15.1803L10.2306 4.29395C10.2626 4.20435 10.1986 4.11475 10.109 4.11475V4.12115Z" fill="white"/>
</svg>
