<svg
      width="40"
      height="40"
      viewBox="0 0 40 40"
      fill="none"
      xmlns="http://www.w3.org/2000/svg"
    >
      <path
        d="M0 20C0 8.95431 8.95431 0 20 0V0C31.0457 0 40 8.95431 40 20V20C40 31.0457 31.0457 40 20 40V40C8.95431 40 0 31.0457 0 20V20Z"
        fill="white"
      />
      <g clipPath="url(#clip0_14543_123738)">
        <path
          d="M10 11.58C10 11.0388 10 10.7682 10.102 10.5601C10.1996 10.3608 10.3608 10.1996 10.5601 10.102C10.7682 10 11.0388 10 11.58 10H28.42C28.9612 10 29.2318 10 29.4399 10.102C29.6392 10.1996 29.8004 10.3608 29.898 10.5601C30 10.7682 30 11.0388 30 11.58V28.42C30 28.9612 30 29.2318 29.898 29.4399C29.8004 29.6392 29.6392 29.8004 29.4399 29.898C29.2318 30 28.9612 30 28.42 30H11.58C11.0388 30 10.7682 30 10.5601 29.898C10.3608 29.8004 10.1996 29.6392 10.102 29.4399C10 29.2318 10 28.9612 10 28.42V11.58Z"
          fill="#0000FF"
        />
      </g>
      <defs>
        <clipPath id="clip0_14543_123738">
          <rect
            width="20"
            height="20"
            fill="white"
            transform="translate(10 10)"
          />
        </clipPath>
      </defs>
    </svg>