<svg width="16" height="16" viewBox="0 0 16 16" fill="none" xmlns="http://www.w3.org/2000/svg">
<path d="M15.9994 7.43739C16.014 8.87068 15.7391 10.2402 15.1992 11.5488C14.4281 13.412 12.5794 14.9356 10.8912 13.3138C9.51441 11.992 9.25898 9.30861 7.19626 8.91579C4.46698 8.55481 4.4013 12.0079 2.61828 12.3981C0.630937 12.8388 -0.0282677 9.19182 0.000922296 7.53558C0.0301122 5.87934 0.433906 3.55157 2.16098 3.55157C4.14833 3.55157 4.28211 6.83486 6.80462 6.65703C9.30279 6.47123 9.34655 3.05523 10.9788 1.59275C12.3872 0.329333 14.0437 1.25566 14.8732 2.77654C15.6419 4.18328 15.98 5.83421 15.997 7.43739H15.9994Z" fill="#97FCE4"/>
</svg>
